PathFileType	4	(X/Y/Z)	SUBJ24_2_walk_RCNL2025.trc
DataRate	CameraRate	NumFrames	NumMarkers	Units	OrigDataRate	OrigDataStartFrame	OrigNumFrames
100	100	11	25	mm	100	100	399
Frame#	Time	R_Shoulder			L_Shoulder			C7			J_Notch			R_Elbow			L_Elbow			R_Wrist			L_Wrist			R_Asis			L_Asis			Sacral			Thoracic			Sternum			R_Thigh_Lateral			R_Knee_Lateral			R_Shank_Lateral			R_Ankle_Lateral			R_Heel			R_Toe			L_Thigh_Lateral			L_Knee_Lateral			L_Shank_Lateral			L_Ankle_Lateral			L_Heel			L_Toe		
		X1	Y1	Z1	X2	Y2	Z2	X3	Y3	Z3	X4	Y4	Z4	X5	Y5	Z5	X6	Y6	Z6	X7	Y7	Z7	X8	Y8	Z8	X9	Y9	Z9	X10	Y10	Z10	X11	Y11	Z11	X12	Y12	Z12	X13	Y13	Z13	X14	Y14	Z14	X15	Y15	Z15	X16	Y16	Z16	X17	Y17	Z17	X18	Y18	Z18	X19	Y19	Z19	X20	Y20	Z20	X21	Y21	Z21	X22	Y22	Z22	X23	Y23	Z23	X24	Y24	Z24	X25	Y25	Z25
100	0.99000000	-2234.387207	1273.311401	310.036072	-2257.318848	1293.766235	-34.988079	-2332.477295	1346.724243	143.362518	-2197.102539	1256.206787	131.433868	-2313.238037	992.927734	391.051147	-2239.310059	1010.776733	-140.341476	-2305.932983	755.750031	378.440475	-2047.959839	870.857788	-128.416798	-2202.331055	849.471863	291.631622	-2256.075684	831.985291	-31.695059	-2401.442627	889.537659	158.918152	-2401.663330	1081.809814	136.253845	-2127.240479	1037.223877	118.466133	-2193.528564	535.437683	321.420227	-2097.636719	431.530396	230.692825	-2080.099121	287.250275	277.249237	-2079.284180	55.465397	205.250504	-2126.442871	28.201365	146.452271	-1952.637207	36.842545	191.940735	-2357.701172	532.930298	-39.769947	-2368.864502	405.370392	15.523081	-2474.959473	285.084290	-26.213707	-2618.999756	111.235329	51.075089	-2668.662598	116.762451	109.119347	-2528.467529	35.656639	82.195076
101	1.00000000	-2221.184326	1274.612671	311.027740	-2243.107666	1295.553223	-33.798496	-2319.250732	1348.212891	144.296616	-2183.707520	1257.907959	132.751053	-2297.436523	993.495789	391.496399	-2229.655029	1011.905212	-139.239166	-2287.758545	756.506744	379.228409	-2041.947754	867.248413	-128.567963	-2189.851318	852.217041	293.120056	-2241.385010	832.477844	-29.893091	-2388.288330	891.030151	158.820862	-2388.325684	1083.294189	136.284653	-2113.505127	1038.980469	119.899422	-2180.226807	538.154053	323.136993	-2087.317871	432.311310	230.970520	-2071.771484	287.456726	277.309357	-2077.961670	55.569611	205.094711	-2126.125000	28.815104	146.695877	-1951.803955	35.324059	191.467484	-2339.261475	532.200317	-40.392475	-2348.180664	404.392456	13.531354	-2457.717529	288.541718	-28.294916	-2607.976074	120.188217	48.888401	-2656.294678	129.482437	107.259544	-2523.802734	36.762424	81.195908
102	1.01000000	-2208.201904	1276.353394	311.927063	-2229.167480	1297.678711	-32.653568	-2306.258789	1349.902222	145.136490	-2170.500488	1259.901611	133.975845	-2281.435547	994.460693	391.973236	-2220.065674	1013.414978	-138.118057	-2268.957520	757.716034	380.036331	-2036.614563	863.490906	-128.729298	-2177.651611	854.977295	294.700195	-2226.760010	833.294617	-27.957232	-2375.233154	892.742615	158.851257	-2375.073730	1084.965210	136.323929	-2100.028076	1041.027344	121.324615	-2168.283691	540.646790	324.802948	-2078.428955	432.697449	231.491562	-2065.524170	287.417297	277.634888	-2076.994385	55.688900	204.898132	-2125.899170	29.275181	146.854645	-1951.252930	34.385376	191.147263	-2320.189697	531.657410	-41.141483	-2326.454346	403.611084	11.346557	-2439.174072	292.404602	-30.495037	-2595.142334	129.656387	46.766270	-2641.814209	142.445648	105.597755	-2517.640381	38.695793	79.572739
103	1.02000000	-2195.426025	1278.443359	312.721588	-2215.584473	1300.040161	-31.600197	-2293.500000	1351.732422	145.885452	-2157.494385	1262.104980	135.079773	-2265.286865	995.760315	392.515106	-2210.527588	1015.196777	-136.985306	-2249.595703	759.325287	380.873474	-2031.887756	859.617950	-128.908398	-2165.681152	857.672974	296.320068	-2212.318359	834.414856	-25.981932	-2362.311035	894.649353	159.068512	-2361.922852	1086.770874	136.423325	-2086.813965	1043.279907	122.681541	-2158.074707	542.702026	326.265411	-2070.966309	432.733002	232.243088	-2061.117188	287.175110	278.181335	-2076.315674	55.791180	204.675034	-2125.744873	29.597561	146.938522	-1950.905151	33.855434	190.941559	-2300.626709	531.360779	-41.986656	-2303.883301	403.116669	9.045215	-2419.449463	296.635956	-32.729027	-2580.538330	139.478149	44.809090	-2625.363037	155.240494	104.252350	-2509.565918	41.705154	77.151436
104	1.03000000	-2182.819092	1280.781494	313.400879	-2202.406982	1302.532959	-30.685188	-2280.950195	1353.663208	146.548431	-2144.688477	1264.440674	136.044128	-2249.033936	997.326233	393.147583	-2201.030518	1017.134705	-135.846130	-2229.724976	761.273132	381.726303	-2027.695679	855.657562	-129.121559	-2153.885010	860.255981	297.915558	-2198.158936	835.819397	-24.071861	-2349.550049	896.721069	159.492020	-2348.899902	1088.675781	136.624924	-2073.852295	1045.664551	123.912369	-2149.579834	544.183655	327.429932	-2064.761719	432.508484	233.177261	-2058.115234	286.802094	278.887207	-2075.862793	55.858753	204.453506	-2125.645752	29.811033	146.971298	-1950.695801	33.589817	190.823425	-2280.695068	531.395935	-42.898392	-2280.646484	403.021240	6.703917	-2398.676025	301.201111	-34.905022	-2564.230957	149.450897	43.105896	-2607.116455	167.427765	103.344574	-2499.166260	45.908485	73.840660
105	1.04000000	-2170.327393	1283.269287	313.960358	-2189.641357	1305.059204	-29.943762	-2268.569580	1355.672607	147.130417	-2132.072998	1266.843506	136.861252	-2232.709473	999.092896	393.883575	-2191.567871	1019.123352	-134.703384	-2209.389893	763.500977	382.568634	-2023.980286	851.635071	-129.387455	-2142.214600	862.699402	299.429535	-2184.343262	837.491333	-22.319216	-2336.963623	898.922485	160.102676	-2336.037354	1090.658447	136.961456	-2061.124023	1048.117920	124.970032	-2142.418945	545.108398	328.309570	-2059.541260	432.133240	234.218674	-2056.016846	286.375336	279.685028	-2075.579590	55.884857	204.264008	-2125.588867	29.948963	146.980438	-1950.576172	33.478176	190.773514	-2260.488037	531.860291	-43.859943	-2256.890381	403.446594	4.384375	-2376.987061	306.065826	-36.935738	-2546.278564	159.309326	41.706795	-2587.234375	178.578079	102.954651	-2486.116699	51.203106	69.666176
106	1.05000000	-2157.894531	1285.823120	314.402588	-2177.257080	1307.537476	-29.391922	-2256.314941	1357.749878	147.636154	-2119.629883	1269.262939	137.534012	-2216.335938	1001.004089	394.722931	-2182.137451	1021.082397	-133.558395	-2188.635010	765.963776	383.373474	-2020.703674	847.579559	-129.717182	-2130.636230	864.988525	300.823761	-2170.892822	839.419678	-20.790634	-2324.549316	901.213928	160.855942	-2323.357666	1092.705444	137.457047	-2048.605957	1050.583740	125.827423	-2136.037354	545.669678	329.017212	-2055.000244	431.708984	235.281006	-2054.351562	285.948883	280.506104	-2075.415039	55.872063	204.129318	-2125.563965	30.042074	146.991730	-1950.512207	33.443279	190.776321	-2240.066895	532.835693	-44.870380	-2232.729980	404.498779	2.125974	-2354.505371	311.178375	-38.752304	-2526.717529	168.718079	40.603649	-2565.847412	188.328964	103.063011	-2470.252441	57.253609	64.796867
107	1.06000000	-2145.474854	1288.381592	314.737640	-2165.199463	1309.908936	-29.023247	-2244.147705	1359.887085	148.071426	-2107.339111	1271.662231	138.076797	-2199.926514	1003.017639	395.656036	-2172.742432	1022.962463	-132.411942	-2167.506470	768.633881	384.116333	-2017.846619	843.533508	-130.110771	-2119.134277	867.111816	302.077393	-2157.800781	841.600159	-19.526207	-2312.291504	903.555298	161.699310	-2310.856934	1094.803589	138.126129	-2036.270752	1053.015015	126.481758	-2129.903809	546.171143	329.703979	-2050.875977	431.307007	236.287506	-2052.743408	285.540558	281.285675	-2075.322266	55.829113	204.057968	-2125.563721	30.113781	147.026123	-1950.480835	33.435966	190.817474	-2219.464600	534.359924	-45.935177	-2208.259277	406.236481	-0.051395	-2331.346191	316.451599	-40.320690	-2505.578369	177.301697	39.727844	-2543.082764	196.436111	103.519707	-2451.583008	63.577202	59.546585
108	1.07000000	-2133.041260	1290.909302	314.983948	-2153.405029	1312.138550	-28.810112	-2232.040283	1362.071289	148.444946	-2095.179443	1274.015991	138.516373	-2183.488281	1005.107666	396.668182	-2163.392578	1024.742920	-131.265152	-2146.049194	771.497925	384.769653	-2015.399780	839.555634	-130.559002	-2107.714111	869.055908	303.180023	-2145.041504	844.026001	-18.541470	-2300.167969	905.908813	162.584366	-2298.510254	1096.933350	138.972122	-2024.091797	1055.377686	126.953026	-2123.625977	546.899048	330.485443	-2046.993042	430.957275	237.186508	-2050.948242	285.141205	281.970734	-2075.261963	55.765034	204.042816	-2125.582520	30.179346	147.096832	-1950.467163	33.428616	190.883240	-2198.696289	536.413879	-47.050777	-2183.563721	408.651123	-2.136333	-2307.625000	321.763153	-41.652134	-2482.912109	184.702118	38.969280	-2519.085693	202.787064	104.077255	-2430.243164	69.669533	54.324062
109	1.08000000	-2120.587402	1293.392822	315.165802	-2141.812500	1314.212280	-28.709974	-2219.976074	1364.279663	148.769348	-2083.129639	1276.307007	138.884933	-2167.027100	1007.262207	397.743469	-2154.109863	1026.422119	-130.119675	-2124.306641	774.555145	385.299515	-2013.352356	835.714203	-131.044449	-2096.397217	870.806030	304.129578	-2132.572510	846.673645	-17.828957	-2288.156250	908.238831	163.469864	-2286.282715	1099.067993	139.986252	-2012.048218	1057.647461	127.277855	-2116.993896	548.008728	331.396637	-2043.270264	430.654327	237.955002	-2048.870605	284.737701	282.528748	-2075.207520	55.686699	204.065460	-2125.616211	30.247719	147.207886	-1950.461914	33.408257	190.961807	-2177.776367	538.933594	-48.195091	-2158.733643	411.673035	-4.113783	-2283.445801	326.974609	-42.796463	-2458.803955	190.633667	38.210865	-2494.018066	207.373093	104.471283	-2406.433350	75.099777	49.540287
110	1.09000000	-2108.123779	1295.833130	315.308380	-2130.370850	1316.129761	-28.675524	-2207.949463	1366.478394	149.060150	-2071.165771	1278.519165	139.206558	-2150.552490	1009.475708	398.867249	-2144.929688	1028.005249	-128.976501	-2102.327271	777.816406	385.675980	-2011.683716	832.076233	-131.543690	-2085.207520	872.350647	304.935242	-2120.336426	849.494080	-17.361681	-2276.235596	910.509094	164.317871	-2274.139648	1101.175781	141.146317	-2000.127563	1059.807739	127.499725	-2109.977295	549.485107	332.389771	-2039.694336	430.375763	238.590469	-2046.553101	284.332886	282.953033	-2075.144531	55.600964	204.102798	-2125.661133	30.324224	147.354309	-1950.459473	33.370491	191.044373	-2156.736084	541.833374	-49.330765	-2133.868896	415.196960	-5.959571	-2258.883301	331.946136	-43.820053	-2433.365723	194.911316	37.362770	-2468.036621	210.241684	104.499451	-2380.377686	79.553215	45.517517
